<?xml version="1.0" encoding="UTF-8" standalone="no"?>
<svg
   xmlns:dc="http://purl.org/dc/elements/1.1/"
   xmlns:cc="http://creativecommons.org/ns#"
   xmlns:rdf="http://www.w3.org/1999/02/22-rdf-syntax-ns#"
   xmlns:svg="http://www.w3.org/2000/svg"
   xmlns="http://www.w3.org/2000/svg"
   viewBox="0 0 1015.2 213.58667"
   height="213.58667"
   width="1015.2"
   xml:space="preserve"
   id="svg2"
   version="1.1"><metadata
     id="metadata8"><rdf:RDF><cc:Work
         rdf:about=""><dc:format>image/svg+xml</dc:format><dc:type
           rdf:resource="http://purl.org/dc/dcmitype/StillImage" /></cc:Work></rdf:RDF></metadata><defs
     id="defs6" /><g
     transform="matrix(1.3333333,0,0,-1.3333333,0,213.58667)"
     id="g10"><g
       transform="scale(0.1)"
       id="g12"><path
         id="path14"
         style="fill:#fdd90a;fill-opacity:1;fill-rule:nonzero;stroke:none"
         d="M 0,1598.04 H 1588.81 V 0 H 508.051 C 508.051,0 87.7539,4.62109 0,471.102 V 1598.04" /><path
         id="path16"
         style="fill:#1c2d4f;fill-opacity:1;fill-rule:nonzero;stroke:none"
         d="M 794.402,1316.31 H 1330.17 V 799.027 H 1090 V 1089.99 H 794.402 v 226.32" /><path
         id="path18"
         style="fill:#1c2d4f;fill-opacity:1;fill-rule:nonzero;stroke:none"
         d="m 2253.9,1210.08 v -166.27 h 187.83 c 0,0 86.22,10.78 92.37,90.06 0,0 -3.08,76.21 -80.06,76.21 z m 0,249.41 v -143.18 h 193.98 c 0,0 67.74,15.4 64.66,71.59 0,0 -6.15,71.59 -70.81,71.59 z m 254.02,115.46 c 133.95,-23.09 133.95,-161.65 133.95,-161.65 18.47,-73.89 -69.29,-152.41 -69.29,-152.41 87.76,-23.1 87.76,-147.8 87.76,-147.8 9.24,-161.652 -175.51,-189.363 -175.51,-189.363 h -369.49 v 651.223 h 392.58" /><path
         id="path20"
         style="fill:#1c2d4f;fill-opacity:1;fill-rule:nonzero;stroke:none"
         d="m 3042.14,1387.9 -92.37,-217.85 h 184.75 z m -70.81,187.05 h 138.56 l 255.56,-651.223 h -141.64 l -52.35,133.933 H 2918.98 L 2857.4,923.727 h -138.56 l 252.49,651.223" /><path
         id="path22"
         style="fill:#1c2d4f;fill-opacity:1;fill-rule:nonzero;stroke:none"
         d="m 7290.65,478.738 -92.37,-217.859 h 184.75 z m -70.81,187.063 H 7358.4 L 7613.96,14.5703 H 7472.31 L 7419.98,148.512 H 7167.49 L 7105.91,14.5703 h -138.56 l 252.49,651.2307" /><path
         id="path24"
         style="fill:#1c2d4f;fill-opacity:1;fill-rule:nonzero;stroke:none"
         d="m 4717.19,1126.95 83.13,-83.14 c 0,0 -73.91,-120.083 -264.81,-120.083 0,0 -332.54,-44.649 -360.26,325.613 0,0 -21.56,333.32 360.26,348.7 0,0 166.27,6.17 249.4,-110.84 l -92.37,-86.22 c 0,0 -48.5,72.37 -168.58,72.37 0,0 -187.06,2.99 -200.91,-213.28 0,0 -9.24,-204.71 205.53,-220.88 0,0 127.81,-9.24 188.61,87.76" /><path
         id="path26"
         style="fill:#1c2d4f;fill-opacity:1;fill-rule:nonzero;stroke:none"
         d="m 3574.7,213.211 83.13,-83.133 c 0,0 -73.91,-120.08972 -264.81,-120.08972 0,0 -332.55,-44.64848 -360.26,325.61372 0,0 -21.56,333.312 360.26,348.703 0,0 166.27,6.164 249.4,-110.856 l -92.37,-86.219 c 0,0 -48.5,72.372 -168.58,72.372 0,0 -187.06,3 -200.91,-213.282 0,0 -9.24,-204.699 205.53,-220.859 0,0 127.81,-9.242 188.61,87.75" /><path
         id="path28"
         style="fill:#1c2d4f;fill-opacity:1;fill-rule:nonzero;stroke:none"
         d="m 6079.76,213.211 83.13,-83.133 c 0,0 -73.9,-120.08972 -264.81,-120.08972 0,0 -332.54,-44.64848 -360.26,325.61372 0,0 -21.53,333.312 360.26,348.703 0,0 166.28,6.164 249.41,-110.856 l -92.37,-86.219 c 0,0 -48.5,72.372 -168.59,72.372 0,0 -187.05,3 -200.9,-213.282 0,0 -9.24,-204.699 205.52,-220.859 0,0 127.81,-9.242 188.61,87.75" /><path
         id="path30"
         style="fill:#1c2d4f;fill-opacity:1;fill-rule:nonzero;stroke:none"
         d="m 5563.41,1255.37 c 0,191.38 -155.14,346.52 -346.53,346.52 -191.38,0 -346.52,-155.14 -346.52,-346.52 0,-191.38 155.14,-346.526 346.52,-346.526 191.39,0 346.53,155.146 346.53,346.526 z m -346.53,-217.08 c -119.88,0 -217.08,97.19 -217.08,217.08 0,119.88 97.2,217.08 217.08,217.08 119.89,0 217.08,-97.2 217.08,-217.08 0,-119.89 -97.19,-217.08 -217.08,-217.08" /><path
         id="path32"
         style="fill:#1c2d4f;fill-opacity:1;fill-rule:nonzero;stroke:none"
         d="M 4653.28,8.28906 H 4526.27 V 672.008 h 127.01 V 8.28906" /><path
         id="path34"
         style="fill:#1c2d4f;fill-opacity:1;fill-rule:nonzero;stroke:none"
         d="M 2898.2,8.28906 H 2771.19 V 672.008 H 2898.2 V 8.28906" /><path
         id="path36"
         style="fill:#1c2d4f;fill-opacity:1;fill-rule:nonzero;stroke:none"
         d="M 2253.9,547.301 V 346.32 h 163.96 c 0,0 94.88,18.469 94.78,100.489 0,0 6.83,95.871 -83.24,100.492 z M 2124.58,8.28906 V 672.008 h 332.54 c 0,0 196.29,-25.399 187.05,-221.699 0,0 16.17,-170.887 -182.43,-219.379 H 2253.9 V 8.28906 h -129.32" /><path
         id="path38"
         style="fill:#1c2d4f;fill-opacity:1;fill-rule:nonzero;stroke:none"
         d="M 3787.29,672.008 V 8.28906 h 131.63 V 284.039 h 293.29 V 8.28906 h 127.01 V 672.008 h -85.45 c 0,0 -41.56,-2.305 -41.56,-46.18 V 417.988 H 3914.3 v 254.02 h -127.01" /><path
         id="path40"
         style="fill:#1c2d4f;fill-opacity:1;fill-rule:nonzero;stroke:none"
         d="M 6299.83,672.008 V 8.28906 h 131.63 V 284.039 h 293.29 V 8.28906 h 127.01 V 672.008 h -85.45 c 0,0 -41.56,-2.305 -41.56,-46.18 v -207.84 h -297.9 v 254.02 h -127.02" /><path
         id="path42"
         style="fill:#1c2d4f;fill-opacity:1;fill-rule:nonzero;stroke:none"
         d="m 3470.91,923.727 v 651.223 h 150.11 c 0,0 30.02,-6.92 46.18,-36.95 l 249.41,-411.05 v 448 h 127.01 V 923.727 h -133.94 c 0,0 -23.09,-2.313 -43.88,32.332 L 3614.09,1369.42 V 923.727 h -143.18" /><path
         id="path44"
         style="fill:#1c2d4f;fill-opacity:1;fill-rule:nonzero;stroke:none"
         d="M 4832,8.32813 V 659.551 h 150.11 c 0,0 30.02,-6.926 46.19,-36.946 l 249.41,-411.054 v 448 h 127.01 V 8.32813 h -133.95 c 0,0 -23.08,-2.3086 -43.88,32.33207 L 4975.19,454.02 V 8.32813 H 4832" /></g></g></svg>